Coordinates
version=1
nRows=21
nColumns=28
inDegrees=yes

Units are S.I. units (second, meters, Newtons, ...)
Angles are in degrees.

endheader
time	pelvis_tilt	pelvis_list	pelvis_rotation	pelvis_tx	pelvis_ty	pelvis_tz	hip_flexion_r	hip_adduction_r	hip_rotation_r	knee_angle_r	ankle_angle_r	subtalar_angle_r	mtp_angle_r	hip_flexion_l	hip_adduction_l	hip_rotation_l	knee_angle_l	socket_flexion	socket_adduction	socket_rotation	socket_tx	socket_ty	socket_tz	foot_flex	lumbar_extension	lumbar_bending	lumbar_rotation
      0.80000000	     -3.38487835	     -6.66585875	      6.15671494	      0.36589419	      0.97954588	      0.25027242	     12.41164091	     12.38825763	      5.84952485	    -22.51713393	      3.47904737	    -22.81917866	     -0.01087792	     25.50412072	     -9.89789156	     -7.33827512	    -58.36520049	     11.02646086	    -11.45915590	     -8.72808017	      0.01942993	      0.01245721	      0.00546295	     -1.07271108	     -6.25863292	      5.73968831	    -11.39995574
      0.80416667	     -3.44357411	     -6.45964318	      6.13230771	      0.37126800	      0.98067776	      0.24986071	     11.86623911	     12.16117412	      5.97665449	    -22.12244235	      3.41427810	    -22.77713983	     -0.00279352	     26.38129102	     -9.55101993	     -7.17359107	    -58.42070325	     10.93909291	    -11.31764755	     -7.89271785	      0.01951308	      0.01285941	      0.00478155	     -1.08919896	     -6.26633387	      5.54509305	    -11.24831922
      0.80833333	     -3.51138800	     -6.25649463	      6.12139417	      0.37672176	      0.98181946	      0.24941853	     11.29753046	     11.92833878	      6.09412986	    -21.66708964	      3.34662830	    -22.73425081	      0.00386563	     27.24029386	     -9.20241647	     -6.99223925	    -58.42106258	     10.81543795	    -11.17509708	     -7.15417754	      0.01955674	      0.01330620	      0.00404179	     -1.11258757	     -6.23901742	      5.36127344	    -11.07521797
      0.81250000	     -3.57304727	     -6.06767471	      6.10507967	      0.38216562	      0.98296640	      0.24890373	     10.72307311	     11.69925567	      6.20102418	    -21.20060178	      3.26231990	    -22.69312296	      0.00800551	     28.07930839	     -8.84940328	     -6.79262138	    -58.37652232	     10.66169931	    -11.04887327	     -6.50451335	      0.01961084	      0.01381435	      0.00334428	     -1.13491271	     -6.20677127	      5.20361284	    -10.88881105
      0.81666667	     -3.63663927	     -5.89033498	      6.09923774	      0.38768882	      0.98404573	      0.24842694	     10.14126046	     11.48797879	      6.29865417	    -20.72067577	      3.15669619	    -22.65580022	      0.00958700	     28.89949212	     -8.49119871	     -6.58148206	    -58.28609856	     10.47694812	    -10.93903357	     -5.94240744	      0.01965332	      0.01435785	      0.00281941	     -1.15800761	     -6.16110915	      5.04875850	    -10.69188776
      0.82083333	     -3.70757562	     -5.73023181	      6.10402368	      0.39323334	      0.98511593	      0.24789394	      9.54913088	     11.28784558	      6.38560000	    -20.19296983	      3.00739506	    -22.63258900	      0.00681297	     29.70912475	     -8.10222349	     -6.34717688	    -58.15050305	     10.25984939	    -10.87886292	     -5.47044247	      0.01964044	      0.01496232	      0.00252762	     -1.17854099	     -6.08629231	      4.90222724	    -10.47069815
      0.82500000	     -3.76325173	     -5.55769818	      6.09034314	      0.39869952	      0.98620667	      0.24732061	      8.97597693	     11.06862823	      6.47221333	    -19.72598309	      2.86442791	    -22.62019297	      0.00338419	     30.48353243	     -7.73728150	     -6.13703515	    -57.96653871	     10.01697753	    -10.77589657	     -5.09732817	      0.01966345	      0.01562600	      0.00206720	     -1.19711037	     -6.04657064	      4.78459336	    -10.27696098
      0.82916667	     -3.83483373	     -5.39787542	      6.09407696	      0.40427003	      0.98720717	      0.24677824	      8.39359655	     10.87059785	      6.56542628	    -19.21679874	      2.69721923	    -22.61671273	     -0.00194407	     31.23050488	     -7.33896351	     -5.89655852	    -57.72745621	      9.73420023	    -10.70248400	     -4.81361339	      0.01962986	      0.01617901	      0.00190905	     -1.21322765	     -5.96804371	      4.65231925	    -10.07068587
      0.83333333	     -3.90141749	     -5.23685932	      6.09195572	      0.40981253	      0.98821988	      0.24621265	      7.81524260	     10.66760874	      6.65467282	    -18.71563214	      2.51068685	    -22.62972991	     -0.01003340	     31.95013197	     -6.92840395	     -5.65307432	    -57.44026770	      9.42396622	    -10.62514038	     -4.63653861	      0.01956200	      0.01681857	      0.00187163	     -1.22641392	     -5.89776236	      4.52762694	     -9.86911858
      0.83750000	     -3.98892660	     -5.07909293	      6.10103083	      0.41544785	      0.98920773	      0.24560436	      7.23711373	     10.46981161	      6.74535788	    -18.18618847	      2.28777630	    -22.66827044	     -0.02123855	     32.62269186	     -6.47416593	     -5.37583451	    -57.09612293	      9.07787249	    -10.56078740	     -4.56368503	      0.01925175	      0.01728327	      0.00204628	     -1.23420120	     -5.81996721	      4.39183510	     -9.66316207
      0.84166667	     -4.04333070	     -4.91188265	      6.08024853	      0.42094062	      0.99014373	      0.24500069	      6.66820336	     10.24785103	      6.82927696	    -17.71153795	      2.08204275	    -22.72116632	     -0.03185089	     33.27548532	     -6.06055558	     -5.11466578	    -56.70690453	      8.70182083	    -10.46193068	     -4.57430319	      0.01932116	      0.01793364	      0.00197245	     -1.23843406	     -5.74722433	      4.28284926	     -9.48615495
      0.84583333	     -4.11000906	     -4.72498504	      6.13635677	      0.42656980	      0.99114485	      0.24393607	      6.05662167	      9.97942305	      6.90008002	    -17.14472948	      1.55844734	    -22.99011725	     -0.06368202	     33.71007389	     -5.37866676	     -4.61624140	    -56.14981171	      8.23045087	    -10.32054727	     -4.89961815	      0.01837117	      0.01758624	      0.00275146	     -1.18262490	     -5.66899089	      4.20128918	     -9.25010083
      0.85000000	     -4.16116496	     -4.55230295	      6.11095523	      0.43205980	      0.99194727	      0.24367838	      5.49067670	      9.80178641	      7.03922912	    -16.68862835	      1.44177211	    -23.08723093	     -0.04595743	     34.29746242	     -5.05916764	     -4.28450338	    -55.70256129	      7.81212432	    -10.13518982	     -4.95117003	      0.01845653	      0.01804192	      0.00211210	     -1.22775431	     -5.66788058	      3.98377787	     -9.15134502
      0.85416667	     -4.25202107	     -4.40774257	      6.09834580	      0.43773159	      0.99278634	      0.24303020	      4.90998507	      9.61296114	      7.17277146	    -16.13245276	      1.21480656	    -23.18212324	     -0.04527757	     34.79834962	     -4.59164400	     -3.92929854	    -55.13214269	      7.31659803	    -10.00530884	     -5.26335365	      0.01803457	      0.01823733	      0.00251063	     -1.20582576	     -5.55667926	      3.87692444	     -8.99416192
      0.85833333	     -4.15169014	     -4.05733822	      6.10083919	      0.44325371	      0.99401247	      0.24216818	      4.15786564	      9.19231881	      7.20056947	    -15.64310589	      0.37885233	    -23.83959470	     -0.06410238	     34.76733228	     -3.83210965	     -2.89930707	    -54.33521136	      6.77410067	     -9.27804708	     -6.20172221	      0.01639598	      0.01698258	      0.00190558	     -1.09946705	     -5.72516362	      3.58486238	     -8.86535444
      0.86250000	     -4.10590217	     -4.01947989	      5.94465582	      0.44836749	      0.99459987	      0.24217267	      3.81400235	      9.18886518	      7.18161936	    -15.76569798	      0.37767176	    -23.84002444	     -0.06140516	     35.29416447	     -3.77885692	     -2.81852081	    -53.86581899	      6.29667969	     -9.23678726	     -6.14050646	      0.01697592	      0.01775660	      0.00167121	     -1.03022723	     -5.82074545	      3.59011641	     -8.86252284
      0.86666667	     -4.24510560	     -3.73053449	      6.06756553	      0.45455170	      0.99555950	      0.24091771	      2.94750404	      8.79148077	      7.48664436	    -14.61268761	     -0.22276998	    -24.29939292	      0.00028214	     35.29437106	     -2.93513630	     -1.62632712	    -52.89164782	      5.60789897	     -8.50331203	     -7.23740435	      0.01472618	      0.01585708	      0.00131059	     -1.12240988	     -5.63894714	      3.34622178	     -8.66180984
      0.87083333	     -4.19928335	     -3.69833164	      5.91757529	      0.45959887	      0.99599245	      0.24093101	      2.61070020	      8.79404942	      7.46670101	    -14.73626941	     -0.22427926	    -24.29910422	      0.00275292	     35.82878770	     -2.88607652	     -1.54095308	    -52.40116230	      5.10765531	     -8.46405909	     -7.18482592	      0.01554344	      0.01689619	      0.00119732	     -1.04305157	     -5.74482649	      3.34256470	     -8.65990665
      0.87500000	     -4.40195810	     -3.40671581	      6.00892087	      0.46571624	      0.99674228	      0.23969270	      1.86815233	      8.38141528	      7.73807035	    -13.68233448	     -0.71730048	    -24.61220665	      0.04070446	     35.87165162	     -2.02562236	     -0.54957703	    -51.40649081	      4.36908418	     -7.91398951	     -8.26223679	      0.01311298	      0.01542644	      0.00152619	     -1.04602112	     -5.51511783	      3.07794345	     -8.46931236
      0.87916667	     -4.50335819	     -3.41196723	      5.93407195	      0.47132301	      0.99703297	      0.23935414	      1.42492133	      8.36802008	      7.77470430	    -13.32202227	     -0.62592437	    -24.63375370	      0.07396175	     36.31597060	     -1.89242370	     -0.37705903	    -50.73262917	      3.71557853	     -7.85791662	     -8.36716307	      0.01319452	      0.01570676	      0.00179122	     -1.09130908	     -5.39879773	      3.11122838	     -8.40084509
      0.88333333	     -4.67051074	     -3.35569616	      5.90561132	      0.47695522	      0.99728544	      0.23869187	      0.99671848	      8.26865976	      7.92882417	    -12.87797927	     -0.70331845	    -24.60871059	      0.08805369	     36.68629567	     -1.52111136	     -0.11602958	    -49.97524023	      2.99995024	     -7.82310289	     -8.60560381	      0.01244909	      0.01570896	      0.00278103	     -1.05389751	     -5.20314669	      3.10046593	     -8.29787738
